<?xml version="1.0" standalone="no"?><!DOCTYPE svg PUBLIC "-//W3C//DTD SVG 1.1//EN" "http://www.w3.org/Graphics/SVG/1.1/DTD/svg11.dtd"><svg t="1664958047917" class="icon" viewBox="0 0 1024 1024" version="1.1" xmlns="http://www.w3.org/2000/svg" p-id="9780" xmlns:xlink="http://www.w3.org/1999/xlink" width="200" height="200"><path d="M746.666667 170.666667H277.333333c-59.733333 0-106.666667 46.933333-106.666666 106.666666v469.333334c0 34.133333 14.933333 64 42.666666 85.333333l6.4 6.4 221.866667 128c4.266667 2.133333 6.4 2.133333 10.666667 2.133333s6.4 0 10.666666-2.133333c6.4-4.266667 10.666667-10.666667 10.666667-19.2V853.333333H746.666667c59.733333 0 106.666667-46.933333 106.666666-106.666666v-42.666667c0-12.8-8.533333-21.333333-21.333333-21.333333s-21.333333 8.533333-21.333333 21.333333v42.666667c0 36.266667-27.733333 64-64 64H471.466667V352c0-8.533333-4.266667-14.933333-12.8-19.2l-221.866667-106.666667c10.666667-8.533333 23.466667-12.8 38.4-12.8h469.333333c36.266667 0 64 27.733333 64 64v42.666667c0 12.8 8.533333 21.333333 21.333334 21.333333s21.333333-8.533333 21.333333-21.333333v-42.666667c2.133333-59.733333-44.8-106.666667-104.533333-106.666666zM428.8 908.8l-183.466667-104.533333-2.133333-2.133334c-17.066667-10.666667-29.866667-32-29.866667-55.466666V277.333333c0-4.266667 0-10.666667 2.133334-14.933333l213.333333 102.4v544z" fill="#666666" p-id="9781"></path><path d="M710.4 633.6c4.266667 4.266667 10.666667 6.4 14.933333 6.4s10.666667-2.133333 14.933334-6.4l106.666666-106.666667c8.533333-8.533333 8.533333-21.333333 0-29.866666l-106.666666-106.666667c-8.533333-8.533333-21.333333-8.533333-29.866667 0s-8.533333 21.333333 0 29.866667l70.4 70.4H533.333333c-12.8 0-21.333333 8.533333-21.333333 21.333333s8.533333 21.333333 21.333333 21.333333h247.466667l-70.4 70.4c-8.533333 8.533333-8.533333 21.333333 0 29.866667z" fill="#666666" p-id="9782"></path></svg>